<svg width="32" height="32" viewBox="0 0 24 24" fill="none" xmlns="http://www.w3.org/2000/svg">
  <path d="M9 11H5a2 2 0 0 0-2 2v7a2 2 0 0 0 2 2h14a2 2 0 0 0 2-2v-7a2 2 0 0 0-2-2h-4" stroke="#dc2626" stroke-width="2" stroke-linecap="round" stroke-linejoin="round"/>
  <path d="M9 7V3a2 2 0 0 1 2-2h2a2 2 0 0 1 2 2v4" stroke="#dc2626" stroke-width="2" stroke-linecap="round" stroke-linejoin="round"/>
  <line x1="9" y1="11" x2="15" y2="11" stroke="#dc2626" stroke-width="2" stroke-linecap="round" stroke-linejoin="round"/>
</svg>